fwd_states
version=1
nRows=4
nColumns=185
inDegrees=yes

# SIMM Motion File Header:
name fwd_states
datacolumns 185
datarows 4
otherdata 1
range 0.10801862 0.10846931
endheader
time	platform_rx	platform_ry	platform_rz	platform_ty	pelvis_tilt	pelvis_list	pelvis_rotation	pelvis_tx	pelvis_ty	pelvis_tz	hip_flexion_r	hip_adduction_r	hip_rotation_r	knee_angle_r	patella_r_constrained_knee_angle	ankle_angle_r	subtalar_angle_r	mtp_angle_r	hip_flexion_l	hip_adduction_l	hip_rotation_l	knee_angle_l	patella_l_constrained_knee_angle	ankle_angle_l	subtalar_angle_l	mtp_angle_l	lumbar_extension	lumbar_bending	lumbar_rotation	arm_flex_r	arm_add_r	arm_rot_r	elbow_flex_r	pro_sup_r	wrist_flex_r	wrist_dev_r	arm_flex_l	arm_add_l	arm_rot_l	elbow_flex_l	pro_sup_l	wrist_flex_l	wrist_dev_l	platform_rx_u	platform_ry_u	platform_rz_u	platform_ty_u	pelvis_tilt_u	pelvis_list_u	pelvis_rotation_u	pelvis_tx_u	pelvis_ty_u	pelvis_tz_u	hip_flexion_r_u	hip_adduction_r_u	hip_rotation_r_u	knee_angle_r_u	patella_r_constrained_knee_angle_u	ankle_angle_r_u	subtalar_angle_r_u	mtp_angle_r_u	hip_flexion_l_u	hip_adduction_l_u	hip_rotation_l_u	knee_angle_l_u	patella_l_constrained_knee_angle_u	ankle_angle_l_u	subtalar_angle_l_u	mtp_angle_l_u	lumbar_extension_u	lumbar_bending_u	lumbar_rotation_u	arm_flex_r_u	arm_add_r_u	arm_rot_r_u	elbow_flex_r_u	pro_sup_r_u	wrist_flex_r_u	wrist_dev_r_u	arm_flex_l_u	arm_add_l_u	arm_rot_l_u	elbow_flex_l_u	pro_sup_l_u	wrist_flex_l_u	wrist_dev_l_u	glut_med1_r.activation	glut_med1_r.fiber_length	glut_med2_r.activation	glut_med2_r.fiber_length	glut_med3_r.activation	glut_med3_r.fiber_length	glut_min1_r.activation	glut_min1_r.fiber_length	glut_min2_r.activation	glut_min2_r.fiber_length	glut_min3_r.activation	glut_min3_r.fiber_length	semimem_r.activation	semimem_r.fiber_length	semiten_r.activation	semiten_r.fiber_length	bifemlh_r.activation	bifemlh_r.fiber_length	bifemsh_r.activation	bifemsh_r.fiber_length	sar_r.activation	sar_r.fiber_length	add_long_r.activation	add_long_r.fiber_length	add_brev_r.activation	add_brev_r.fiber_length	add_mag1_r.activation	add_mag1_r.fiber_length	add_mag2_r.activation	add_mag2_r.fiber_length	add_mag3_r.activation	add_mag3_r.fiber_length	tfl_r.activation	tfl_r.fiber_length	pect_r.activation	pect_r.fiber_length	grac_r.activation	grac_r.fiber_length	glut_max1_r.activation	glut_max1_r.fiber_length	glut_max2_r.activation	glut_max2_r.fiber_length	glut_max3_r.activation	glut_max3_r.fiber_length	iliacus_r.activation	iliacus_r.fiber_length	psoas_r.activation	psoas_r.fiber_length	quad_fem_r.activation	quad_fem_r.fiber_length	gem_r.activation	gem_r.fiber_length	peri_r.activation	peri_r.fiber_length	rect_fem_r.activation	rect_fem_r.fiber_length	vas_med_r.activation	vas_med_r.fiber_length	vas_int_r.activation	vas_int_r.fiber_length	vas_lat_r.activation	vas_lat_r.fiber_length	med_gas_r.activation	med_gas_r.fiber_length	lat_gas_r.activation	lat_gas_r.fiber_length	soleus_r.activation	soleus_r.fiber_length	tib_post_r.activation	tib_post_r.fiber_length	flex_dig_r.activation	flex_dig_r.fiber_length	flex_hal_r.activation	flex_hal_r.fiber_length	tib_ant_r.activation	tib_ant_r.fiber_length	per_brev_r.activation	per_brev_r.fiber_length	per_long_r.activation	per_long_r.fiber_length	per_tert_r.activation	per_tert_r.fiber_length	ext_dig_r.activation	ext_dig_r.fiber_length	ext_hal_r.activation	ext_hal_r.fiber_length	ercspn_r.activation	ercspn_r.fiber_length	ercspn_l.activation	ercspn_l.fiber_length	intobl_r.activation	intobl_r.fiber_length	intobl_l.activation	intobl_l.fiber_length	extobl_r.activation	extobl_r.fiber_length	extobl_l.activation	extobl_l.fiber_length
      0.10801862	      0.00000000	     -0.00000000	     -0.00000000	     -0.00000000	    -12.15728559	     -3.30010959	      7.35761740	     -0.43457237	      0.88029335	      0.37578429	     53.71574614	      7.53324390	     -5.33576619	    -60.79688827	    -60.79688827	     16.89042282	    -12.22235119	      0.00001318	     52.13915936	      0.00000000	     -9.99811353	   -101.98648811	   -101.98648811	      6.49999992	     -0.00000000	      0.00000000	    -22.60612679	      1.90555942	      1.55603826	      0.00000000	     -8.91003344	      0.00000000	     72.06682857	     46.23690339	     -0.00000000	      4.87402477	     -0.00000000	     -8.91003344	     -0.00000000	     72.06682857	     46.23690339	     -0.00000000	      4.87402477	      0.00000000	     -0.00000000	     -0.00000000	     -0.00000000	     12.92963155	   -119.59108437	   -154.76182280	     -0.24441517	     -1.29776231	      0.57541931	    197.67289916	    228.52148340	    -41.78038129	   -263.09814127	   -263.09814127	     26.45693864	    -65.27016545	     -0.00000000	     -0.00000000	      0.00000000	      0.00000000	     -0.00000000	      0.00000000	     -0.00000000	     -0.00000000	      0.00000000	   -189.49155017	     46.07754296	    208.29819618	      0.00000000	     -0.00000000	      0.00000000	     -0.00000000	      0.00000000	     -0.00000000	     -0.00000000	     -0.00000000	      0.00000000	     -0.00000000	     -0.00000000	      0.00000000	     -0.00000000	      0.00000000	      0.19312289	      0.05583925	      0.23157099	      0.10157889	      0.41259049	      0.08672702	      0.10164521	      0.07333335	      0.18527673	      0.06598327	      0.37401936	      0.04798810	      0.12314363	      0.06760746	      0.43227059	      0.23102514	      0.31564524	      0.11540778	      0.17200305	      0.15403362	      0.01988626	      0.43625199	      0.01915455	      0.08248217	      0.01915455	      0.11510033	      0.01945819	      0.07187902	      0.03574827	      0.10637000	      0.10999802	      0.14596170	      0.02576177	      0.08448053	      0.01915455	      0.05082835	      0.01915455	      0.32489414	      0.17852243	      0.11555057	      0.17827161	      0.12999722	      0.15013273	      0.15317344	      0.01915455	      0.06972718	      0.01915455	      0.06277992	      0.17263665	      0.05631375	      0.34492820	      0.02791215	      0.60540790	      0.03170881	      0.25982440	      0.11349747	      0.39734549	      0.09741348	      0.45814975	      0.09956759	      0.41366102	      0.09296487	      0.36112224	      0.05255655	      0.38417029	      0.05739576	      0.63748569	      0.05611966	      0.01915455	      0.04157713	      0.01915455	      0.03904347	      0.01915455	      0.04804196	      0.13958420	      0.07384970	      0.01915455	      0.04779838	      0.01915455	      0.04960535	      0.01915455	      0.07485816	      0.01915455	      0.08883003	      0.01915455	      0.09926096	      0.13473135	      0.13387879	      0.27347759	      0.13674950	      0.01915455	      0.07729778	      0.03267528	      0.08200053	      0.07074784	      0.10736746	      0.03753457	      0.10817468
      0.10817994	      0.00000000	     -0.00000000	     -0.00000000	     -0.00000000	    -12.15521307	     -3.31939335	      7.33263392	     -0.43461184	      0.88008406	      0.37587716	     53.74763504	      7.57011737	     -5.34250496	    -60.83929927	    -60.83929927	     16.89465699	    -12.23289471	      0.00001318	     52.13915936	      0.00000000	     -9.99811353	   -101.98648811	   -101.98648811	      6.49999992	     -0.00000000	      0.00000000	    -22.63669468	      1.91295321	      1.58964977	      0.00000000	     -8.91003344	      0.00000000	     72.06682857	     46.23690339	     -0.00000000	      4.87402477	     -0.00000000	     -8.91003344	     -0.00000000	     72.06682857	     46.23690339	     -0.00000000	      4.87402477	      0.00000000	     -0.00000000	     -0.00000000	     -0.00000000	     12.76483421	   -119.48279895	   -154.97511769	     -0.24488986	     -1.29697156	      0.57601853	    197.67561095	    228.62369345	    -41.76486241	   -262.70007655	   -262.70007655	     26.03751977	    -65.44205490	     -0.00000000	     -0.00000000	      0.00000000	      0.00000000	     -0.00000000	      0.00000000	     -0.00000000	     -0.00000000	      0.00000000	   -189.47910234	     45.58836313	    208.40618037	      0.00000000	     -0.00000000	      0.00000000	     -0.00000000	      0.00000000	     -0.00000000	     -0.00000000	     -0.00000000	      0.00000000	     -0.00000000	     -0.00000000	      0.00000000	     -0.00000000	      0.00000000	      0.19300916	      0.05585326	      0.23147976	      0.10160358	      0.41258626	      0.08675779	      0.10156975	      0.07334176	      0.18517835	      0.06599795	      0.37398691	      0.04800843	      0.12293822	      0.06759627	      0.43214964	      0.23100775	      0.31558433	      0.11540514	      0.17181474	      0.15401065	      0.01986516	      0.43621963	      0.01913505	      0.08242949	      0.01913505	      0.11506336	      0.01943803	      0.07186079	      0.03569085	      0.10636508	      0.10986278	      0.14597582	      0.02572756	      0.08447505	      0.01913505	      0.05079114	      0.01913505	      0.32485358	      0.17836491	      0.11558105	      0.17808862	      0.13002706	      0.14987701	      0.15318881	      0.01913505	      0.06970161	      0.01913505	      0.06275059	      0.17233132	      0.05632040	      0.34480322	      0.02792505	      0.60538989	      0.03173286	      0.25988367	      0.11350909	      0.39756647	      0.09743881	      0.45839507	      0.09959430	      0.41388910	      0.09298991	      0.36103352	      0.05254980	      0.38409388	      0.05738907	      0.63768986	      0.05612515	      0.01913505	      0.04158053	      0.01913505	      0.03904771	      0.01913505	      0.04804657	      0.13940197	      0.07384463	      0.01913505	      0.04779546	      0.01913505	      0.04960569	      0.01913505	      0.07485467	      0.01913505	      0.08882237	      0.01913505	      0.09925593	      0.13490071	      0.13388327	      0.27355869	      0.13677715	      0.01913505	      0.07728096	      0.03262513	      0.08196620	      0.07059955	      0.10730842	      0.03747287	      0.10817093
      0.10834126	      0.00000000	     -0.00000000	     -0.00000000	     -0.00000000	    -12.15316714	     -3.33865966	      7.30761608	     -0.43465138	      0.87987490	      0.37597014	     53.77952448	      7.60700728	     -5.34924129	    -60.88164621	    -60.88164621	     16.89882353	    -12.24346591	      0.00001318	     52.13915936	      0.00000000	     -9.99811353	   -101.98648811	   -101.98648811	      6.49999992	     -0.00000000	      0.00000000	    -22.66726049	      1.92026811	      1.62327860	      0.00000000	     -8.91003344	      0.00000000	     72.06682857	     46.23690339	     -0.00000000	      4.87402477	     -0.00000000	     -8.91003344	     -0.00000000	     72.06682857	     46.23690339	     -0.00000000	      4.87402477	      0.00000000	     -0.00000000	     -0.00000000	     -0.00000000	     12.59990291	   -119.37471583	   -155.18798228	     -0.24536446	     -1.29618305	      0.57661676	    197.67947528	    228.72542552	    -41.75019477	   -262.30383043	   -262.30383043	     25.61701537	    -65.62224898	     -0.00000000	     -0.00000000	      0.00000000	      0.00000000	     -0.00000000	      0.00000000	     -0.00000000	     -0.00000000	      0.00000000	   -189.46591376	     45.09950734	    208.51297427	      0.00000000	     -0.00000000	      0.00000000	     -0.00000000	      0.00000000	     -0.00000000	     -0.00000000	     -0.00000000	      0.00000000	     -0.00000000	     -0.00000000	      0.00000000	     -0.00000000	      0.00000000	      0.19289487	      0.05586725	      0.23138892	      0.10162824	      0.41258286	      0.08678853	      0.10149395	      0.07335015	      0.18507957	      0.06601261	      0.37395491	      0.04802875	      0.12273301	      0.06758511	      0.43202880	      0.23099041	      0.31552355	      0.11540253	      0.17162659	      0.15398772	      0.01984411	      0.43618731	      0.01911559	      0.08237682	      0.01911559	      0.11502637	      0.01941791	      0.07184255	      0.03563357	      0.10636014	      0.10972772	      0.14598993	      0.02569344	      0.08446957	      0.01911559	      0.05075392	      0.01911559	      0.32481308	      0.17820765	      0.11561151	      0.17790601	      0.13005689	      0.14962185	      0.15320416	      0.01911559	      0.06967604	      0.01911559	      0.06272128	      0.17202769	      0.05632706	      0.34468047	      0.02793797	      0.60537416	      0.03175690	      0.25994275	      0.11352066	      0.39778722	      0.09746409	      0.45864021	      0.09962096	      0.41411702	      0.09301489	      0.36094459	      0.05254304	      0.38401723	      0.05738238	      0.63789326	      0.05613062	      0.01911559	      0.04158393	      0.01911559	      0.03905195	      0.01911559	      0.04805117	      0.13922026	      0.07383963	      0.01911559	      0.04779250	      0.01911559	      0.04960601	      0.01911559	      0.07485120	      0.01911559	      0.08881477	      0.01911559	      0.09925095	      0.13507110	      0.13388779	      0.27363905	      0.13680475	      0.01911559	      0.07726429	      0.03257510	      0.08193171	      0.07045168	      0.10724941	      0.03741132	      0.10816715
      0.10846931	      0.00000000	     -0.00000000	     -0.00000000	     -0.00000000	    -12.15156205	     -3.35394069	      7.28773270	     -0.43468283	      0.87970895	      0.37604401	     53.80483854	      7.63630183	     -5.35458688	    -60.91521544	    -60.91521544	     16.90208268	    -12.25187752	      0.00001318	     52.13915936	      0.00000000	     -9.99811353	   -101.98648811	   -101.98648811	      6.49999992	     -0.00000000	      0.00000000	    -22.69152183	      1.92601849	      1.64998508	      0.00000000	     -8.91003344	      0.00000000	     72.06682857	     46.23690339	     -0.00000000	      4.87402477	     -0.00000000	     -8.91003344	     -0.00000000	     72.06682857	     46.23690339	     -0.00000000	      4.87402477	      0.00000000	     -0.00000000	     -0.00000000	     -0.00000000	     12.46888778	   -119.28906389	   -155.35664406	     -0.24574114	     -1.29555873	      0.57709091	    197.68341407	    228.80585814	    -41.73877712	   -261.99090122	   -261.99090122	     25.28573467	    -65.75069249	     -0.00000000	     -0.00000000	      0.00000000	      0.00000000	     -0.00000000	      0.00000000	     -0.00000000	     -0.00000000	      0.00000000	   -189.45491807	     44.71169038	    208.59689723	      0.00000000	     -0.00000000	      0.00000000	     -0.00000000	      0.00000000	     -0.00000000	     -0.00000000	     -0.00000000	      0.00000000	     -0.00000000	     -0.00000000	      0.00000000	     -0.00000000	      0.00000000	      0.19280375	      0.05587833	      0.23131707	      0.10164779	      0.41258074	      0.08681292	      0.10143354	      0.07335679	      0.18500089	      0.06602423	      0.37392982	      0.04804486	      0.12257027	      0.06757628	      0.43193296	      0.23097667	      0.31547540	      0.11540047	      0.17147735	      0.15396955	      0.01982743	      0.43616168	      0.01910018	      0.08233501	      0.01910018	      0.11499700	      0.01940197	      0.07182808	      0.03558819	      0.10635622	      0.10962062	      0.14600111	      0.02566641	      0.08446522	      0.01910018	      0.05072437	      0.01910018	      0.32478096	      0.17808300	      0.11563567	      0.17776133	      0.13008055	      0.14941969	      0.15321632	      0.01910018	      0.06965576	      0.01910018	      0.06269801	      0.17178789	      0.05633236	      0.34458460	      0.02794824	      0.60536329	      0.03177597	      0.25998950	      0.11352982	      0.39796230	      0.09748411	      0.45883467	      0.09964208	      0.41429784	      0.09303469	      0.36087385	      0.05253766	      0.38395622	      0.05737705	      0.63805416	      0.05613494	      0.01910018	      0.04158663	      0.01910018	      0.03905532	      0.01910018	      0.04805482	      0.13907638	      0.07383572	      0.01910018	      0.04779014	      0.01910018	      0.04960627	      0.01910018	      0.07484846	      0.01910018	      0.08880879	      0.01910018	      0.09924704	      0.13520707	      0.13389140	      0.27370230	      0.13682663	      0.01910018	      0.07725119	      0.03253547	      0.08190423	      0.07033459	      0.10720258	      0.03736256	      0.10816413
